# xmcd
#
# Track frame offsets:
#	150
#	21688
#	43600
#	58612
#	79784
#	98342
#	115424
#	129274
#	150974
#	168294
#	183448
#	213364
#	245664
#	261977
#	286082
#
# Disc length: 4276 seconds
#
# Revision: 0
# Processed by: cddbd v1.5.1PL0 Copyright (c) Steve Scherf et al.
# Submitted via: dBpowerAMP V4.0
#
DISCID=c610b20f
DTITLE=Hans Theessink - Bridges
DYEAR=1900
DGENRE=Blues
TTITLE0=Behind The Sun
TTITLE1=Believe the devil took her hand
TTITLE2=Bridges
TTITLE3=Dream
TTITLE4=Circles
TTITLE5=Running Home
TTITLE6=Brand New Dawn
TTITLE7=Zambezi
TTITLE8=Moses
TTITLE9=Odyssey
TTITLE10=People get ready
TTITLE11=What will the Children Play
TTITLE12=Rain
TTITLE13=Little Girl
TTITLE14=Mbube
EXTD=
EXTT0=
EXTT1=
EXTT2=
EXTT3=
EXTT4=
EXTT5=
EXTT6=
EXTT7=
EXTT8=
EXTT9=
EXTT10=
EXTT11=
EXTT12=
EXTT13=
EXTT14=
PLAYORDER=
